:SAMPLES-PER-SECOND 30
:FRAME-RANGE 1-3535
:FULLY-SPECIFIED
:DEGREES
1105
root  -43.7103 38.114 -74.0628 -167.019 78.4473 -167.872
RightUpLeg  -13.3758 0.33461 12.2932
RightLeg  25.5678 -13.5989 -5.77674
RightFoot  -14.7959 -0.272339 -5.71249
RightToes  1.22775e-009 1.2921e-014 -6.02303e-014
Spine  8.61461 -3.43413 7.32572
Spine1  -0.470547 -2.68796 3.52841
HEad  0.731275 -43.2953 0.266501
LeftShoulder1  1.39963 -0.330289 -30.4453
LeftArm  16.9844 8.55735 -35.4584
LeftForeArm  7.39215 -6.74082 -16.7926
LeftHand  0.526746 -3.06062 -7.01267
RightShoulder  6.75095 7.8162 52.2085
RightArm  37.2762 0.685784 18.6297
RightForeArm  -2.71264 25.3778 5.5801
RightHand  0.438533 5.55252 4.32221
LeftUpLeg  -14.3074 15.1836 10.0003
LeftLeg  63.4233 -0.775681 -1.07936
LeftFoot  6.43974 1.83591 -11.954
LeftToes  2.52163e-011 5.65494e-011 -1.09494e-012
1106
root  -42.5852 38.3618 -74.7172 -167.915 82.428 -168.95
RightUpLeg  -10.3418 0.461941 10.6272
RightLeg  23.7367 -10.1933 -4.29439
RightFoot  -15.7278 -0.310016 -5.31676
RightToes  1.22775e-009 1.2921e-014 -6.02303e-014
Spine  8.35703 -2.92928 6.74123
Spine1  -1.1093 -2.16319 2.53926
HEad  -0.166478 -44.4787 0.589751
LeftShoulder1  1.34748 -0.169226 -30.6259
LeftArm  14.8556 12.8227 -33.4067
LeftForeArm  7.70502 -5.89911 -17.0306
LeftHand  0.486871 -2.74279 -6.74553
RightShoulder  7.22159 8.65162 52.0119
RightArm  34.4754 1.45015 19.5574
RightForeArm  1.06824 29.0035 6.23654
RightHand  0.46632 5.47535 4.65342
LeftUpLeg  -17.4775 14.6714 9.22514
LeftLeg  59.9791 -0.339251 -0.0894463
LeftFoot  3.85419 1.35955 -10.3476
LeftToes  2.52163e-011 5.65494e-011 -1.09494e-012
1107
root  -41.4407 38.6051 -75.322 -168.733 86.2406 -169.863
RightUpLeg  -7.09015 0.16427 8.98092
RightLeg  21.3992 -6.37086 -2.9551
RightFoot  -16.3039 -0.322724 -4.90225
RightToes  1.22775e-009 1.2921e-014 -6.02303e-014
Spine  8.07214 -2.43613 6.0297
Spine1  -1.58087 -1.74918 1.69538
HEad  -1.4275 -44.6464 1.12266
LeftShoulder1  1.28443 0.00458648 -30.6442
LeftArm  13.6655 16.5445 -31.7522
LeftForeArm  7.73603 -5.43661 -17.1561
LeftHand  0.496897 -2.51151 -7.11041
RightShoulder  7.66545 9.44382 51.8322
RightArm  33.1167 2.1389 20.1386
RightForeArm  3.72224 32.5924 6.99937
RightHand  0.466802 5.28379 4.75395
LeftUpLeg  -19.5246 14.727 9.00824
LeftLeg  53.6772 -0.153368 0.238043
LeftFoot  1.73961 1.0989 -9.66103
LeftToes  2.52163e-011 5.65494e-011 -1.09494e-012
1108
root  -40.3082 38.8308 -75.8801 -168.064 89.69 -169.35
RightUpLeg  -3.85441 -0.405042 7.35291
RightLeg  18.5488 -2.47859 -1.97454
RightFoot  -16.5576 -0.323246 -4.63746
RightToes  1.22775e-009 1.2921e-014 -6.02303e-014
Spine  7.53605 -2.03714 5.16301
Spine1  -1.6875 -1.51453 1.02783
HEad  -3.01127 -44.4722 2.25061
LeftShoulder1  1.22538 0.152695 -30.5008
LeftArm  12.7882 19.5521 -30.5682
LeftForeArm  7.89515 -4.90997 -17.3073
LeftHand  0.524636 -2.39406 -7.64122
RightShoulder  8.1553 10.2777 51.8048
RightArm  32.6869 2.88197 20.4648
RightForeArm  6.27321 35.1162 7.53712
RightHand  0.440317 5.33864 4.44069
LeftUpLeg  -20.4644 15.0503 9.14184
LeftLeg  44.462 -0.598498 -0.240804
LeftFoot  0.527452 1.04324 -10.0493
LeftToes  2.52163e-011 5.65494e-011 -1.09494e-012
1109
root  -39.2068 39.0478 -76.3929 12.4847 87.2866 10.8043
RightUpLeg  -0.798293 -0.879013 5.63707
RightLeg  15.1342 1.25016 -1.41264
RightFoot  -16.2979 -0.299647 -4.37664
RightToes  1.22775e-009 1.2921e-014 -6.02303e-014
Spine  6.77167 -1.66764 3.89388
Spine1  -1.57559 -1.38513 0.581705
HEad  -4.58625 -44.1768 3.38079
LeftShoulder1  1.18949 0.245481 -30.4387
LeftArm  12.6695 21.6402 -29.6133
LeftForeArm  7.47792 -4.47854 -17.4889
LeftHand  0.550534 -2.20616 -8.24258
RightShoulder  8.53764 10.9808 51.6025
RightArm  32.6153 3.4293 20.7508
RightForeArm  7.9409 36.6543 7.87602
RightHand  0.410771 5.28186 4.14743
LeftUpLeg  -20.3129 15.093 9.23246
LeftLeg  32.1352 -1.39607 -0.607224
LeftFoot  0.859666 1.17737 -11.04
LeftToes  2.52163e-011 5.65494e-011 -1.09494e-012
1110
root  -38.1162 39.2072 -76.9044 14.6489 84.8406 12.6152
RightUpLeg  2.12727 -1.42172 3.67617
RightLeg  11.8177 4.31094 -1.31394
RightFoot  -16.2316 -0.24641 -3.20049
RightToes  1.22775e-009 1.2921e-014 -6.02303e-014
Spine  6.25883 -1.46191 2.45373
Spine1  -1.53428 -1.34988 0.114521
HEad  -5.84554 -43.9736 4.24842
LeftShoulder1  1.17069 0.294661 -30.4112
LeftArm  12.7588 22.8555 -28.83
LeftForeArm  7.15717 -4.0471 -17.6702
LeftHand  0.569311 -2.02521 -8.75418
RightShoulder  8.70881 11.2772 51.5803
RightArm  32.9872 3.8894 20.7452
RightForeArm  8.85454 36.8264 7.87046
RightHand  0.405581 5.43536 4.02385
LeftUpLeg  -19.1923 13.8464 9.10813
LeftLeg  18.3734 -2.26171 -0.521358
LeftFoot  1.70486 1.27196 -11.1882
LeftToes  2.52163e-011 5.65494e-011 -1.09494e-012
1111
root  -37.0226 39.2829 -77.4504 15.91 82.7827 13.8556
RightUpLeg  4.92852 -2.02182 1.62772
RightLeg  9.26621 7.08681 -1.62962
RightFoot  -16.564 -0.196357 -1.84956
RightToes  1.22775e-009 1.2921e-014 -6.02303e-014
Spine  6.0653 -1.34892 1.27617
Spine1  -1.25517 -1.24223 -0.662426
HEad  -6.93642 -44.0593 4.93601
LeftShoulder1  1.17253 0.273347 -30.2255
LeftArm  12.366 23.0282 -28.4422
LeftForeArm  7.11741 -3.34547 -17.8732
LeftHand  0.570264 -1.78901 -9.08098
RightShoulder  8.93912 11.7172 51.415
RightArm  33.1504 3.60279 20.5986
RightForeArm  8.42259 35.9912 7.65587
RightHand  0.395115 5.43016 3.91414
LeftUpLeg  -17.6518 9.95748 9.6884
LeftLeg  6.35764 -0.097566 -0.735954
LeftFoot  1.48679 1.25734 -11.2383
LeftToes  2.52163e-011 5.65494e-011 -1.09494e-012
1112
root  -35.8941 39.232 -78.0672 16.6478 81.1266 14.8942
RightUpLeg  7.40959 -2.47521 -0.361102
RightLeg  8.06866 9.336 -2.36079
RightFoot  -17.6266 -0.136451 -0.313484
RightToes  1.22775e-009 1.2921e-014 -6.02303e-014
Spine  6.08552 -1.3703 0.247413
Spine1  -0.775828 -1.24181 -1.18968
HEad  -7.71681 -44.1661 5.13252
LeftShoulder1  1.19783 0.203183 -30.2215
LeftArm  12.8567 22.2428 -28.2643
LeftForeArm  6.61027 -2.89046 -18.0727
LeftHand  0.538791 -1.53675 -8.91162
RightShoulder  9.01422 11.8587 51.3697
RightArm  34.2701 3.60814 20.3265
RightForeArm  6.66626 33.5653 7.08918
RightHand  0.369636 5.62532 3.56551
LeftUpLeg  -16.957 9.13748 9.31952
LeftLeg  -0.779881 3.59694 -1.97143
LeftFoot  0.302554 1.37412 -13.4462
LeftToes  2.52163e-011 5.65494e-011 -1.09494e-012
1113
root  -34.6919 39.0363 -78.7718 17.2728 80.0673 15.8664
RightUpLeg  9.24893 -2.26322 -2.21144
RightLeg  8.56077 10.2836 -3.00365
RightFoot  -19.412 -0.0335274 1.38746
RightToes  1.22775e-009 1.2921e-014 -6.02303e-014
Spine  6.08352 -1.52537 -0.501289
Spine1  -0.326624 -1.39975 -1.38493
HEad  -8.05887 -44.3342 4.91565
LeftShoulder1  1.24824 0.073165 -30.3187
LeftArm  15.2302 20.567 -28.3177
LeftForeArm  4.64605 -3.19743 -18.2519
LeftHand  0.47855 -1.1907 -8.35697
RightShoulder  8.90868 11.6816 51.3613
RightArm  36.7844 3.74098 20.0061
RightForeArm  3.33881 29.7701 6.30126
RightHand  0.335708 5.815 3.1436
LeftUpLeg  -16.9251 9.36515 8.09734
LeftLeg  -2.72482 8.40482 -3.40408
LeftFoot  0.253562 1.68626 -16.5279
LeftToes  2.52163e-011 5.65494e-011 -1.09494e-012
1114
root  -33.4241 38.8275 -79.5057 18.6082 79.2942 17.7306
RightUpLeg  11.0839 -0.21969 -3.99642
RightLeg  9.68117 9.22176 -3.18081
RightFoot  -20.8481 0.160547 3.62888
RightToes  1.22775e-009 1.2921e-014 -6.02303e-014
Spine  6.13392 -1.61551 -1.61394
Spine1  0.236148 -1.53737 -1.29344
HEad  -7.68528 -44.8462 4.24988
LeftShoulder1  1.2929 -0.0350122 -30.4716
LeftArm  15.1287 17.9882 -28.7205
LeftForeArm  5.02657 -2.60452 -18.4065
LeftHand  0.451301 -1.16635 -7.90829
RightShoulder  8.74747 11.4365 51.2626
RightArm  41.1006 3.54021 19.4537
RightForeArm  -2.1713 25.1347 5.49735
RightHand  0.288659 5.93433 2.62261
LeftUpLeg  -18.0218 8.16959 5.83915
LeftLeg  1.23583 9.6002 -2.66424
LeftFoot  6.89093 1.32409 -8.50295
LeftToes  2.52163e-011 5.65494e-011 -1.09494e-012
1115
root  -32.0597 38.5466 -80.2237 18.9245 78.7987 19.1035
RightUpLeg  12.7374 5.85168 -4.66575
RightLeg  13.0784 4.60012 -2.53206
RightFoot  -22.13 0.478904 6.65613
RightToes  1.22775e-009 1.2921e-014 -6.02303e-014
Spine  6.72474 -1.57125 -3.09436
Spine1  0.303101 -1.81138 -0.21322
HEad  -6.91682 -45.415 3.57531
LeftShoulder1  1.28283 0.00706292 -30.624
LeftArm  15.0182 14.9699 -29.3168
LeftForeArm  4.88143 -2.4355 -18.4687
LeftHand  0.416676 -1.04813 -7.44214
RightShoulder  8.49414 10.9367 51.4987
RightArm  40.7604 3.42618 18.2535
RightForeArm  -3.26159 19.3709 8.112
RightHand  0.251135 5.70375 2.29884
LeftUpLeg  -19.0513 9.4736 3.87389
LeftLeg  8.1984 6.69065 -1.43122
LeftFoot  9.59238 1.35834 -7.66287
LeftToes  2.52163e-011 5.65494e-011 -1.09494e-012
1116
root  -30.748 38.3412 -80.8645 21.4538 78.14 22.4451
RightUpLeg  12.9007 14.7993 -4.9652
RightLeg  19.0794 -2.63984 -1.22742
RightFoot  -22.2523 0.908066 11.0629
RightToes  1.22775e-009 1.2921e-014 -6.02303e-014
Spine  7.35886 -1.31928 -5.21992
Spine1  0.200263 -1.91171 0.677866
HEad  -5.86604 -46.1559 3.3389
LeftShoulder1  1.29412 0.00776028 -30.9572
LeftArm  16.8735 10.6736 -29.8372
LeftForeArm  2.77996 -2.58789 -18.685
LeftHand  0.352228 -0.730103 -6.64189
RightShoulder  8.46522 10.5603 52.6661
RightArm  22.0526 3.71038 15.5611
RightForeArm  12.503 8.39596 15.3105
RightHand  0.207881 5.86013 1.8126
LeftUpLeg  -20.7833 16.7261 -0.264498
LeftLeg  16.2841 -0.930136 -0.432533
LeftFoot  4.51799 1.05064 -7.73281
LeftToes  2.52163e-011 5.65494e-011 -1.09494e-012
1117
root  -29.5618 38.2609 -81.4911 21.8257 76.4999 23.353
RightUpLeg  10.0682 14.1637 -8.0266
RightLeg  27.5407 -0.227025 -0.354767
RightFoot  -19.5057 1.15322 17.8911
RightToes  1.22775e-009 1.2921e-014 -6.02303e-014
Spine  7.68081 -0.851777 -6.24251
Spine1  0.616903 -1.4673 -0.674014
HEad  -4.62432 -46.4282 2.66258
LeftShoulder1  1.36264 -0.1549 -31.1883
LeftArm  17.9029 5.99914 -30.5831
LeftForeArm  1.59594 -2.49424 -18.8554
LeftHand  0.293742 -0.552902 -5.71503
RightShoulder  8.43954 10.341 53.3145
RightArm  8.15681 3.32948 13.4923
RightForeArm  20.744 -2.29741 17.1623
RightHand  0.157613 5.27693 1.40074
LeftUpLeg  -20.5249 19.9982 -2.1596
LeftLeg  20.5294 -2.64979 -0.761747
LeftFoot  0.784254 0.72544 -6.87078
LeftToes  2.52163e-011 5.65494e-011 -1.09494e-012
